<mxfile host="app.diagrams.net" modified="2024-02-08T16:34:58.734Z" agent="Mozilla/5.0 (Windows NT 10.0; Win64; x64) AppleWebKit/537.36 (KHTML, like Gecko) Chrome/121.0.0.0 Safari/537.36" etag="wu2z4hry4ave3OG4P3Y9" version="23.1.2" type="github">
  <diagram name="第 1 页" id="RiwEQBVP6Pt6G4PIuM6V">
    <mxGraphModel dx="-191" dy="3879" grid="1" gridSize="10" guides="1" tooltips="1" connect="1" arrows="1" fold="1" page="1" pageScale="1" pageWidth="827" pageHeight="1169" math="0" shadow="0">
      <root>
        <mxCell id="0" />
        <mxCell id="1" parent="0" />
        <mxCell id="oZS1PJBofjfwS2mwzUAG-349" value="" style="group;strokeWidth=2;" parent="1" vertex="1" connectable="0">
          <mxGeometry x="1029" y="-3208" width="63.93" height="85" as="geometry" />
        </mxCell>
        <mxCell id="oZS1PJBofjfwS2mwzUAG-350" value="" style="shape=actor;whiteSpace=wrap;html=1;fillColor=#ffe6cc;strokeColor=#000000;strokeWidth=2;" parent="oZS1PJBofjfwS2mwzUAG-349" vertex="1">
          <mxGeometry x="-2.7398571428571428" width="63.93" height="85" as="geometry" />
        </mxCell>
        <mxCell id="oZS1PJBofjfwS2mwzUAG-351" value="&lt;font face=&quot;Times New Roman&quot;&gt;&lt;b&gt;G2P Model&lt;/b&gt;&lt;/font&gt;" style="text;html=1;strokeColor=none;fillColor=none;align=center;verticalAlign=middle;whiteSpace=wrap;rounded=0;" parent="oZS1PJBofjfwS2mwzUAG-349" vertex="1">
          <mxGeometry x="6.511727142857139" y="54.4" width="44.751000000000005" height="25.5" as="geometry" />
        </mxCell>
        <mxCell id="oZS1PJBofjfwS2mwzUAG-352" value="" style="group;movable=1;resizable=1;rotatable=1;deletable=1;editable=1;locked=0;connectable=1;" parent="1" vertex="1" connectable="0">
          <mxGeometry x="884.6400000000001" y="-2844.1369611307423" width="225.07999999999996" height="192.79787985865698" as="geometry" />
        </mxCell>
        <mxCell id="oZS1PJBofjfwS2mwzUAG-357" value="&lt;p style=&quot;line-height: 150%;&quot;&gt;&lt;font size=&quot;1&quot; style=&quot;&quot;&gt;&lt;b style=&quot;font-size: 14px;&quot;&gt;sentence split&lt;/b&gt;&lt;/font&gt;&lt;/p&gt;" style="text;html=1;strokeColor=none;fillColor=none;align=center;verticalAlign=middle;whiteSpace=wrap;rounded=0;movable=1;resizable=1;rotatable=1;deletable=1;editable=1;locked=0;connectable=1;rotation=0;" parent="oZS1PJBofjfwS2mwzUAG-352" vertex="1">
          <mxGeometry x="121.99999999999987" y="23.176961130742257" width="83.65" height="47.49" as="geometry" />
        </mxCell>
        <mxCell id="oZS1PJBofjfwS2mwzUAG-358" value="" style="endArrow=classic;html=1;rounded=0;fillColor=#dae8fc;strokeColor=#6c8ebf;strokeWidth=3;exitX=0.455;exitY=0.843;exitDx=0;exitDy=0;exitPerimeter=0;entryX=0;entryY=0;entryDx=0;entryDy=47.877422368648894;entryPerimeter=0;" parent="oZS1PJBofjfwS2mwzUAG-352" target="oZS1PJBofjfwS2mwzUAG-404" edge="1">
          <mxGeometry width="50" height="50" relative="1" as="geometry">
            <mxPoint x="50.37539999999967" y="146.18426000000045" as="sourcePoint" />
            <mxPoint x="280.3599999999999" y="186.1369611307423" as="targetPoint" />
            <Array as="points">
              <mxPoint x="50.3599999999999" y="186.1369611307423" />
            </Array>
          </mxGeometry>
        </mxCell>
        <mxCell id="oZS1PJBofjfwS2mwzUAG-359" value="&lt;font size=&quot;1&quot; face=&quot;Lucida Console&quot;&gt;&lt;b style=&quot;font-size: 16px;&quot;&gt;X&lt;/b&gt;&lt;/font&gt;" style="text;html=1;strokeColor=none;fillColor=none;align=center;verticalAlign=middle;whiteSpace=wrap;rounded=0;movable=1;resizable=1;rotatable=1;deletable=1;editable=1;locked=0;connectable=1;" parent="oZS1PJBofjfwS2mwzUAG-352" vertex="1">
          <mxGeometry x="124.00000000000024" y="61.91696113074205" width="85.41" height="53.75" as="geometry" />
        </mxCell>
        <mxCell id="oZS1PJBofjfwS2mwzUAG-408" value="&lt;font size=&quot;1&quot; face=&quot;Lucida Console&quot;&gt;&lt;b style=&quot;font-size: 16px;&quot;&gt;(S,X,Y)&lt;/b&gt;&lt;/font&gt;" style="text;html=1;strokeColor=none;fillColor=none;align=center;verticalAlign=middle;whiteSpace=wrap;rounded=0;movable=1;resizable=1;rotatable=1;deletable=1;editable=1;locked=0;connectable=1;rotation=0;container=0;" parent="oZS1PJBofjfwS2mwzUAG-352" vertex="1">
          <mxGeometry x="123.00039028892323" y="149.13671378091848" width="85.40992069078791" height="47.49116607773852" as="geometry" />
        </mxCell>
        <mxCell id="oZS1PJBofjfwS2mwzUAG-360" value="&lt;div style=&quot;border-color: var(--border-color); text-align: left; line-height: 130%; font-size: 17px;&quot;&gt;&lt;font face=&quot;Times New Roman&quot; style=&quot;border-color: var(--border-color); font-size: 17px;&quot;&gt;&lt;b&gt;x&lt;/b&gt;&lt;sub style=&quot;font-weight: bold; border-color: var(--border-color);&quot;&gt;1:&amp;nbsp;&lt;i&gt;&amp;nbsp;&lt;/i&gt;&lt;/sub&gt;&lt;i style=&quot;&quot;&gt;The food is delicious.&lt;/i&gt;&lt;br&gt;&lt;/font&gt;&lt;/div&gt;&lt;div style=&quot;border-color: var(--border-color); text-align: left; line-height: 130%; font-size: 17px;&quot;&gt;&lt;font face=&quot;Times New Roman&quot; style=&quot;border-color: var(--border-color); font-size: 17px;&quot;&gt;&lt;b&gt;x&lt;/b&gt;&lt;sub style=&quot;font-weight: bold; border-color: var(--border-color);&quot;&gt;2:&amp;nbsp;&amp;nbsp;&lt;/sub&gt;&lt;i style=&quot;&quot;&gt;We had a good day.&lt;/i&gt;&lt;/font&gt;&lt;/div&gt;&lt;div style=&quot;border-color: var(--border-color); text-align: left; line-height: 130%; font-size: 17px;&quot;&gt;&lt;font face=&quot;Times New Roman&quot; style=&quot;border-color: var(--border-color); font-size: 17px;&quot;&gt;&lt;b&gt;x&lt;/b&gt;&lt;sub style=&quot;font-weight: bold; border-color: var(--border-color);&quot;&gt;n：&lt;/sub&gt;&lt;i style=&quot;&quot;&gt;It is a sunny day.&lt;/i&gt;&lt;/font&gt;&lt;/div&gt;" style="rounded=1;whiteSpace=wrap;html=1;container=0;fillColor=#d5e8d4;strokeColor=#000000;strokeWidth=2;" parent="1" vertex="1">
          <mxGeometry x="1083.93" y="-2820" width="186" height="101" as="geometry" />
        </mxCell>
        <mxCell id="oZS1PJBofjfwS2mwzUAG-361" value="" style="endArrow=block;html=1;rounded=0;strokeWidth=3;endFill=1;fillColor=#e1d5e7;strokeColor=#9673a6;movable=1;resizable=1;rotatable=1;deletable=1;editable=1;locked=0;connectable=1;" parent="1" edge="1">
          <mxGeometry width="50" height="50" relative="1" as="geometry">
            <mxPoint x="1120.93" y="-2882.04" as="sourcePoint" />
            <mxPoint x="1169.68" y="-2882.04" as="targetPoint" />
          </mxGeometry>
        </mxCell>
        <mxCell id="oZS1PJBofjfwS2mwzUAG-362" value="" style="endArrow=block;html=1;rounded=0;strokeWidth=3;endFill=1;fillColor=#e1d5e7;strokeColor=#9673a6;movable=1;resizable=1;rotatable=1;deletable=1;editable=1;locked=0;connectable=1;" parent="1" edge="1">
          <mxGeometry width="50" height="50" relative="1" as="geometry">
            <mxPoint x="1331.93" y="-2877.04" as="sourcePoint" />
            <mxPoint x="1421.93" y="-2837.04" as="targetPoint" />
          </mxGeometry>
        </mxCell>
        <mxCell id="oZS1PJBofjfwS2mwzUAG-377" value="&lt;font style=&quot;font-size: 16px;&quot;&gt;&lt;b&gt;generate&lt;/b&gt;&lt;/font&gt;" style="text;html=1;strokeColor=none;fillColor=none;align=center;verticalAlign=middle;whiteSpace=wrap;rounded=0;movable=1;resizable=1;rotatable=1;deletable=1;editable=1;locked=0;connectable=1;rotation=0;" parent="1" vertex="1">
          <mxGeometry x="1102.4667065559154" y="-2921.534416961131" width="85.40992069078791" height="47.49116607773852" as="geometry" />
        </mxCell>
        <mxCell id="oZS1PJBofjfwS2mwzUAG-378" value="&lt;b style=&quot;&quot;&gt;&lt;font style=&quot;font-size: 16px;&quot;&gt;cluster&lt;/font&gt;&lt;/b&gt;" style="text;html=1;strokeColor=none;fillColor=none;align=center;verticalAlign=middle;whiteSpace=wrap;rounded=0;movable=1;resizable=1;rotatable=1;deletable=1;editable=1;locked=0;connectable=1;rotation=25;" parent="1" vertex="1">
          <mxGeometry x="1306" y="-2895.4199999999996" width="137.55" height="43.42" as="geometry" />
        </mxCell>
        <mxCell id="oZS1PJBofjfwS2mwzUAG-379" value="&lt;b&gt;...&lt;/b&gt;" style="text;html=1;strokeColor=none;fillColor=none;align=center;verticalAlign=middle;whiteSpace=wrap;rounded=0;movable=1;resizable=1;rotatable=1;deletable=1;editable=1;locked=0;connectable=1;" parent="1" vertex="1">
          <mxGeometry x="1302.1598485772838" y="-2736.7193639575967" width="85.40992069078791" height="47.49116607773852" as="geometry" />
        </mxCell>
        <mxCell id="oZS1PJBofjfwS2mwzUAG-380" value="" style="endArrow=classic;html=1;rounded=0;fillColor=#dae8fc;strokeColor=#6c8ebf;strokeWidth=3;movable=1;resizable=1;rotatable=1;deletable=1;editable=1;locked=0;connectable=1;exitX=0;exitY=1;exitDx=0;exitDy=0;entryX=1.007;entryY=0.269;entryDx=0;entryDy=0;entryPerimeter=0;" parent="1" edge="1">
          <mxGeometry width="50" height="50" relative="1" as="geometry">
            <mxPoint x="1421.93" y="-2716.06" as="sourcePoint" />
            <mxPoint x="1347.7251454002226" y="-2671.1533056183744" as="targetPoint" />
          </mxGeometry>
        </mxCell>
        <mxCell id="oZS1PJBofjfwS2mwzUAG-381" value="" style="endArrow=classic;html=1;rounded=0;fillColor=#dae8fc;strokeColor=#6c8ebf;strokeWidth=3;" parent="1" edge="1">
          <mxGeometry width="50" height="50" relative="1" as="geometry">
            <mxPoint x="1366" y="-2769" as="sourcePoint" />
            <mxPoint x="1424" y="-2769" as="targetPoint" />
          </mxGeometry>
        </mxCell>
        <mxCell id="oZS1PJBofjfwS2mwzUAG-382" value="" style="endArrow=classic;html=1;rounded=0;fillColor=#dae8fc;strokeColor=#6c8ebf;strokeWidth=3;exitX=1;exitY=0.5;exitDx=0;exitDy=0;entryX=-0.038;entryY=0.82;entryDx=0;entryDy=0;entryPerimeter=0;" parent="1" edge="1">
          <mxGeometry width="50" height="50" relative="1" as="geometry">
            <mxPoint x="1273.93" y="-2769.04" as="sourcePoint" />
            <mxPoint x="1318.884" y="-2768.8199999999997" as="targetPoint" />
          </mxGeometry>
        </mxCell>
        <mxCell id="oZS1PJBofjfwS2mwzUAG-383" value="&lt;p style=&quot;line-height: 120%;&quot;&gt;&lt;font size=&quot;1&quot; style=&quot;&quot;&gt;&lt;b style=&quot;font-size: 14px;&quot;&gt;&amp;nbsp; &amp;nbsp; word&amp;nbsp; &amp;nbsp; &amp;nbsp;&lt;/b&gt;&lt;/font&gt;&lt;b style=&quot;background-color: initial; font-size: 14px;&quot;&gt;split&lt;/b&gt;&lt;/p&gt;" style="text;html=1;strokeColor=none;fillColor=none;align=center;verticalAlign=middle;whiteSpace=wrap;rounded=0;movable=1;resizable=1;rotatable=1;deletable=1;editable=1;locked=0;connectable=1;rotation=0;" parent="1" vertex="1">
          <mxGeometry x="1249.26" y="-2819.7799999999997" width="82.67" height="47.49" as="geometry" />
        </mxCell>
        <mxCell id="oZS1PJBofjfwS2mwzUAG-384" value="" style="childLayout=tableLayout;recursiveResize=0;shadow=0;fillColor=#fff2cc;strokeColor=#000000;strokeWidth=2;" parent="1" vertex="1">
          <mxGeometry x="1320.8600000000001" y="-2827.04" width="52" height="104" as="geometry" />
        </mxCell>
        <mxCell id="oZS1PJBofjfwS2mwzUAG-385" style="shape=tableRow;horizontal=0;startSize=0;swimlaneHead=0;swimlaneBody=0;top=0;left=0;bottom=0;right=0;dropTarget=0;collapsible=0;recursiveResize=0;expand=0;fontStyle=0;fillColor=none;strokeColor=inherit;" parent="oZS1PJBofjfwS2mwzUAG-384" vertex="1">
          <mxGeometry width="52" height="20" as="geometry" />
        </mxCell>
        <mxCell id="oZS1PJBofjfwS2mwzUAG-386" value="&lt;b&gt;1&lt;/b&gt;" style="connectable=0;recursiveResize=0;strokeColor=inherit;fillColor=none;align=center;whiteSpace=wrap;html=1;strokeWidth=2;" parent="oZS1PJBofjfwS2mwzUAG-385" vertex="1">
          <mxGeometry width="15" height="20" as="geometry">
            <mxRectangle width="15" height="20" as="alternateBounds" />
          </mxGeometry>
        </mxCell>
        <mxCell id="oZS1PJBofjfwS2mwzUAG-387" value="&lt;font style=&quot;font-size: 15px;&quot; face=&quot;Times New Roman&quot;&gt;We&lt;/font&gt;" style="connectable=0;recursiveResize=0;strokeColor=inherit;fillColor=none;align=center;whiteSpace=wrap;html=1;strokeWidth=1;" parent="oZS1PJBofjfwS2mwzUAG-385" vertex="1">
          <mxGeometry x="15" width="37" height="20" as="geometry">
            <mxRectangle width="37" height="20" as="alternateBounds" />
          </mxGeometry>
        </mxCell>
        <mxCell id="oZS1PJBofjfwS2mwzUAG-388" style="shape=tableRow;horizontal=0;startSize=0;swimlaneHead=0;swimlaneBody=0;top=0;left=0;bottom=0;right=0;dropTarget=0;collapsible=0;recursiveResize=0;expand=0;fontStyle=0;fillColor=none;strokeColor=inherit;" parent="oZS1PJBofjfwS2mwzUAG-384" vertex="1">
          <mxGeometry y="20" width="52" height="21" as="geometry" />
        </mxCell>
        <mxCell id="oZS1PJBofjfwS2mwzUAG-389" value="&lt;b&gt;2&lt;/b&gt;" style="connectable=0;recursiveResize=0;strokeColor=inherit;fillColor=none;align=center;whiteSpace=wrap;html=1;strokeWidth=2;" parent="oZS1PJBofjfwS2mwzUAG-388" vertex="1">
          <mxGeometry width="15" height="21" as="geometry">
            <mxRectangle width="15" height="21" as="alternateBounds" />
          </mxGeometry>
        </mxCell>
        <mxCell id="oZS1PJBofjfwS2mwzUAG-390" value="&lt;font style=&quot;font-size: 15px;&quot; face=&quot;Times New Roman&quot; color=&quot;#ff0000&quot;&gt;had&lt;/font&gt;" style="connectable=0;recursiveResize=0;strokeColor=inherit;fillColor=none;align=center;whiteSpace=wrap;html=1;strokeWidth=2;" parent="oZS1PJBofjfwS2mwzUAG-388" vertex="1">
          <mxGeometry x="15" width="37" height="21" as="geometry">
            <mxRectangle width="37" height="21" as="alternateBounds" />
          </mxGeometry>
        </mxCell>
        <mxCell id="oZS1PJBofjfwS2mwzUAG-391" style="shape=tableRow;horizontal=0;startSize=0;swimlaneHead=0;swimlaneBody=0;top=0;left=0;bottom=0;right=0;dropTarget=0;collapsible=0;recursiveResize=0;expand=0;fontStyle=0;fillColor=none;strokeColor=inherit;" parent="oZS1PJBofjfwS2mwzUAG-384" vertex="1">
          <mxGeometry y="41" width="52" height="21" as="geometry" />
        </mxCell>
        <mxCell id="oZS1PJBofjfwS2mwzUAG-392" value="&lt;b&gt;3&lt;/b&gt;" style="connectable=0;recursiveResize=0;strokeColor=inherit;fillColor=none;align=center;whiteSpace=wrap;html=1;strokeWidth=2;" parent="oZS1PJBofjfwS2mwzUAG-391" vertex="1">
          <mxGeometry width="15" height="21" as="geometry">
            <mxRectangle width="15" height="21" as="alternateBounds" />
          </mxGeometry>
        </mxCell>
        <mxCell id="oZS1PJBofjfwS2mwzUAG-393" value="&lt;font style=&quot;font-size: 15px;&quot; face=&quot;Times New Roman&quot;&gt;a&lt;/font&gt;" style="connectable=0;recursiveResize=0;strokeColor=inherit;fillColor=none;align=center;whiteSpace=wrap;html=1;strokeWidth=2;" parent="oZS1PJBofjfwS2mwzUAG-391" vertex="1">
          <mxGeometry x="15" width="37" height="21" as="geometry">
            <mxRectangle width="37" height="21" as="alternateBounds" />
          </mxGeometry>
        </mxCell>
        <mxCell id="oZS1PJBofjfwS2mwzUAG-394" style="shape=tableRow;horizontal=0;startSize=0;swimlaneHead=0;swimlaneBody=0;top=0;left=0;bottom=0;right=0;dropTarget=0;collapsible=0;recursiveResize=0;expand=0;fontStyle=0;fillColor=none;strokeColor=inherit;" parent="oZS1PJBofjfwS2mwzUAG-384" vertex="1">
          <mxGeometry y="62" width="52" height="21" as="geometry" />
        </mxCell>
        <mxCell id="oZS1PJBofjfwS2mwzUAG-395" value="&lt;b&gt;4&lt;/b&gt;" style="connectable=0;recursiveResize=0;strokeColor=inherit;fillColor=none;align=center;whiteSpace=wrap;html=1;strokeWidth=2;" parent="oZS1PJBofjfwS2mwzUAG-394" vertex="1">
          <mxGeometry width="15" height="21" as="geometry">
            <mxRectangle width="15" height="21" as="alternateBounds" />
          </mxGeometry>
        </mxCell>
        <mxCell id="oZS1PJBofjfwS2mwzUAG-396" value="&lt;font style=&quot;font-size: 15px;&quot; face=&quot;Times New Roman&quot;&gt;good&lt;/font&gt;" style="connectable=0;recursiveResize=0;strokeColor=inherit;fillColor=none;align=center;whiteSpace=wrap;html=1;strokeWidth=2;" parent="oZS1PJBofjfwS2mwzUAG-394" vertex="1">
          <mxGeometry x="15" width="37" height="21" as="geometry">
            <mxRectangle width="37" height="21" as="alternateBounds" />
          </mxGeometry>
        </mxCell>
        <mxCell id="oZS1PJBofjfwS2mwzUAG-397" style="shape=tableRow;horizontal=0;startSize=0;swimlaneHead=0;swimlaneBody=0;top=0;left=0;bottom=0;right=0;dropTarget=0;collapsible=0;recursiveResize=0;expand=0;fontStyle=0;fillColor=none;strokeColor=inherit;" parent="oZS1PJBofjfwS2mwzUAG-384" vertex="1">
          <mxGeometry y="83" width="52" height="21" as="geometry" />
        </mxCell>
        <mxCell id="oZS1PJBofjfwS2mwzUAG-398" value="&lt;b&gt;5&lt;/b&gt;" style="connectable=0;recursiveResize=0;strokeColor=inherit;fillColor=none;align=center;whiteSpace=wrap;html=1;strokeWidth=2;" parent="oZS1PJBofjfwS2mwzUAG-397" vertex="1">
          <mxGeometry width="15" height="21" as="geometry">
            <mxRectangle width="15" height="21" as="alternateBounds" />
          </mxGeometry>
        </mxCell>
        <mxCell id="oZS1PJBofjfwS2mwzUAG-399" value="&lt;font style=&quot;font-size: 15px;&quot; face=&quot;Times New Roman&quot;&gt;day&lt;/font&gt;" style="connectable=0;recursiveResize=0;strokeColor=inherit;fillColor=none;align=center;whiteSpace=wrap;html=1;strokeWidth=1;" parent="oZS1PJBofjfwS2mwzUAG-397" vertex="1">
          <mxGeometry x="15" width="37" height="21" as="geometry">
            <mxRectangle width="37" height="21" as="alternateBounds" />
          </mxGeometry>
        </mxCell>
        <mxCell id="oZS1PJBofjfwS2mwzUAG-400" value="&lt;b&gt;&lt;font style=&quot;font-size: 14px;&quot;&gt;look up&lt;/font&gt;&lt;/b&gt;" style="text;html=1;strokeColor=none;fillColor=none;align=center;verticalAlign=middle;whiteSpace=wrap;rounded=0;" parent="1" vertex="1">
          <mxGeometry x="1376.86" y="-2809.03" width="39.14" height="30" as="geometry" />
        </mxCell>
        <mxCell id="oZS1PJBofjfwS2mwzUAG-401" value="" style="endArrow=block;html=1;rounded=0;exitX=0.48;exitY=-0.02;exitDx=0;exitDy=0;strokeWidth=3;endFill=1;fillColor=#e1d5e7;strokeColor=#9673a6;movable=1;resizable=1;rotatable=1;deletable=1;editable=1;locked=0;connectable=1;exitPerimeter=0;" parent="1" edge="1">
          <mxGeometry width="50" height="50" relative="1" as="geometry">
            <mxPoint x="936.768" y="-2839.9231611307423" as="sourcePoint" />
            <mxPoint x="1038.09" y="-2884.06" as="targetPoint" />
            <Array as="points">
              <mxPoint x="937" y="-2884" />
            </Array>
          </mxGeometry>
        </mxCell>
        <mxCell id="oZS1PJBofjfwS2mwzUAG-402" value="&lt;font size=&quot;1&quot; face=&quot;Lucida Console&quot;&gt;&lt;b style=&quot;font-size: 16px;&quot;&gt;X&lt;/b&gt;&lt;/font&gt;" style="text;html=1;strokeColor=none;fillColor=none;align=center;verticalAlign=middle;whiteSpace=wrap;rounded=0;movable=1;resizable=1;rotatable=1;deletable=1;editable=1;locked=0;connectable=1;" parent="1" vertex="1">
          <mxGeometry x="936.5700000000002" y="-2924.0000000000005" width="85.41" height="53.75" as="geometry" />
        </mxCell>
        <mxCell id="oZS1PJBofjfwS2mwzUAG-403" value="" style="group" parent="1" vertex="1" connectable="0">
          <mxGeometry x="1192.5351454002225" y="-2685.2342756183743" width="170" height="134.13" as="geometry" />
        </mxCell>
        <mxCell id="oZS1PJBofjfwS2mwzUAG-404" value="" style="shape=cylinder3;whiteSpace=wrap;html=1;boundedLbl=1;backgroundOutline=1;size=28.68984473729779;fillColor=#dae8fc;strokeColor=#000000;movable=1;resizable=1;rotatable=1;deletable=1;editable=1;locked=0;connectable=1;strokeWidth=2;" parent="oZS1PJBofjfwS2mwzUAG-403" vertex="1">
          <mxGeometry x="-16" y="-20" width="170" height="134.13" as="geometry" />
        </mxCell>
        <mxCell id="oZS1PJBofjfwS2mwzUAG-405" value="&lt;font style=&quot;font-size: 16px;&quot; face=&quot;Times New Roman&quot;&gt;&lt;b&gt;Annotated&lt;font style=&quot;font-size: 16px;&quot;&gt;&amp;nbsp;Quintuple Dataset&lt;/font&gt;&lt;/b&gt;&lt;/font&gt;" style="text;html=1;strokeColor=none;fillColor=none;align=center;verticalAlign=middle;whiteSpace=wrap;rounded=0;strokeWidth=2;" parent="oZS1PJBofjfwS2mwzUAG-403" vertex="1">
          <mxGeometry x="-2.1600000000000037" y="-2.9999999999999973" width="140" height="30" as="geometry" />
        </mxCell>
        <mxCell id="oZS1PJBofjfwS2mwzUAG-406" value="&lt;font style=&quot;font-size: 15px;&quot; face=&quot;Times New Roman&quot;&gt;&lt;i&gt;&lt;font style=&quot;font-weight: bold; border-color: var(--border-color); font-size: 15px;&quot;&gt;&lt;br style=&quot;border-color: var(--border-color);&quot;&gt;&lt;/font&gt;(speech,transcripts,&lt;br style=&quot;border-color: var(--border-color);&quot;&gt;translation,word, index&lt;b&gt;)&lt;/b&gt;&lt;/i&gt;&lt;/font&gt;&lt;font face=&quot;Lucida Console&quot;&gt;&lt;br&gt;&lt;/font&gt;" style="text;html=1;strokeColor=none;fillColor=none;align=center;verticalAlign=middle;whiteSpace=wrap;rounded=0;movable=1;resizable=1;rotatable=1;deletable=1;editable=1;locked=0;connectable=1;" parent="oZS1PJBofjfwS2mwzUAG-403" vertex="1">
          <mxGeometry x="-10" y="35.129999999999995" width="160" height="47.49" as="geometry" />
        </mxCell>
        <mxCell id="oZS1PJBofjfwS2mwzUAG-407" value="&lt;font style=&quot;font-size: 14px;&quot;&gt;&lt;b&gt;homophone index:&amp;nbsp; &amp;nbsp;2&lt;br&gt;homophone word:&amp;nbsp; &amp;nbsp;had&lt;/b&gt;&lt;/font&gt;" style="text;html=1;strokeColor=none;fillColor=none;align=left;verticalAlign=middle;whiteSpace=wrap;rounded=0;rotation=0;" parent="1" vertex="1">
          <mxGeometry x="1375.43" y="-2689.23" width="225" height="30" as="geometry" />
        </mxCell>
        <mxCell id="oZS1PJBofjfwS2mwzUAG-409" value="&lt;b&gt;&lt;font style=&quot;font-size: 16px;&quot;&gt;...&lt;/font&gt;&lt;/b&gt;" style="text;html=1;strokeColor=none;fillColor=none;align=center;verticalAlign=middle;whiteSpace=wrap;rounded=0;" parent="1" vertex="1">
          <mxGeometry x="1317.4300000000003" y="-2857.0400000000004" width="60" height="30" as="geometry" />
        </mxCell>
        <mxCell id="A3MTyo62DCRhICWHN4gR-2" value="&lt;b&gt;&lt;font style=&quot;font-size: 16px;&quot;&gt;...&lt;/font&gt;&lt;/b&gt;" style="text;html=1;strokeColor=none;fillColor=none;align=center;verticalAlign=middle;whiteSpace=wrap;rounded=0;" parent="1" vertex="1">
          <mxGeometry x="1148.9300000000003" y="-2748.0000000000005" width="60" height="30" as="geometry" />
        </mxCell>
        <mxCell id="oZS1PJBofjfwS2mwzUAG-353" value="&lt;font face=&quot;Lucida Console&quot;&gt;&lt;br&gt;&lt;/font&gt;" style="shape=cylinder3;whiteSpace=wrap;html=1;boundedLbl=1;backgroundOutline=1;size=19.49696113074242;fillColor=#F8DDD8;strokeColor=#000000;movable=1;resizable=1;rotatable=1;deletable=1;editable=1;locked=0;connectable=1;strokeWidth=2;" parent="1" vertex="1">
          <mxGeometry x="863" y="-3210" width="127" height="89.31" as="geometry" />
        </mxCell>
        <mxCell id="oZS1PJBofjfwS2mwzUAG-354" value="&lt;font style=&quot;font-size: 15px;&quot; face=&quot;Times New Roman&quot;&gt;&lt;i&gt;&lt;b&gt;(S,X,Y)&lt;br&gt;&lt;/b&gt;&lt;br&gt;(speech,transcripts,&lt;br style=&quot;border-color: var(--border-color);&quot;&gt;translation)&lt;/i&gt;&lt;/font&gt;&lt;font face=&quot;Lucida Console&quot;&gt;&lt;br&gt;&lt;/font&gt;" style="text;html=1;strokeColor=none;fillColor=none;align=center;verticalAlign=middle;whiteSpace=wrap;rounded=0;movable=1;resizable=1;rotatable=1;deletable=1;editable=1;locked=0;connectable=1;" parent="1" vertex="1">
          <mxGeometry x="870.2000000000002" y="-3219.0769611307423" width="113.88" height="111.82" as="geometry" />
        </mxCell>
        <mxCell id="oZS1PJBofjfwS2mwzUAG-355" value="&lt;font size=&quot;1&quot; face=&quot;Times New Roman&quot; style=&quot;&quot;&gt;&lt;b style=&quot;font-size: 14px;&quot;&gt;ST Triple Dataset&lt;/b&gt;&lt;/font&gt;" style="text;html=1;strokeColor=none;fillColor=none;align=center;verticalAlign=middle;whiteSpace=wrap;rounded=0;" parent="1" vertex="1">
          <mxGeometry x="856.0000000000001" y="-3120.686961130742" width="137" height="30" as="geometry" />
        </mxCell>
        <mxCell id="CGGLEbJkZ7G3rvRjNtM6-1" value="" style="group" vertex="1" connectable="0" parent="1">
          <mxGeometry x="1130" y="-3217" width="363.46000000000004" height="124" as="geometry" />
        </mxCell>
        <mxCell id="A3MTyo62DCRhICWHN4gR-4" value="" style="group" parent="CGGLEbJkZ7G3rvRjNtM6-1" vertex="1" connectable="0">
          <mxGeometry x="2" y="9" width="250" height="87.7" as="geometry" />
        </mxCell>
        <mxCell id="oZS1PJBofjfwS2mwzUAG-363" value="&lt;p style=&quot;line-height: 130%; font-size: 15px;&quot;&gt;&lt;br&gt;&lt;/p&gt;" style="rounded=1;whiteSpace=wrap;html=1;align=left;fillColor=#dae8fc;strokeColor=#000000;movable=1;resizable=1;rotatable=1;deletable=1;editable=1;locked=0;connectable=1;strokeWidth=2;" parent="A3MTyo62DCRhICWHN4gR-4" vertex="1">
          <mxGeometry x="1.3599999999999994" y="3.3751484135107472" width="131.64" height="84.32485158648926" as="geometry" />
        </mxCell>
        <mxCell id="oZS1PJBofjfwS2mwzUAG-410" value="&lt;b&gt;&lt;font style=&quot;font-size: 16px;&quot;&gt;...&lt;/font&gt;&lt;/b&gt;" style="text;html=1;strokeColor=none;fillColor=none;align=center;verticalAlign=middle;whiteSpace=wrap;rounded=0;" parent="A3MTyo62DCRhICWHN4gR-4" vertex="1">
          <mxGeometry x="38.25572519083988" y="64.08499839664466" width="57.25190839694657" height="25.296709893412523" as="geometry" />
        </mxCell>
        <mxCell id="CGGLEbJkZ7G3rvRjNtM6-11" value="" style="endArrow=classic;html=1;rounded=0;strokeWidth=2;" edge="1" parent="A3MTyo62DCRhICWHN4gR-4">
          <mxGeometry width="50" height="50" relative="1" as="geometry">
            <mxPoint x="136" y="39.39406345957011" as="sourcePoint" />
            <mxPoint x="181" y="39.39406345957011" as="targetPoint" />
          </mxGeometry>
        </mxCell>
        <mxCell id="A3MTyo62DCRhICWHN4gR-3" value="&lt;p style=&quot;border-color: var(--border-color); color: rgb(51, 51, 51); text-align: left; line-height: 110%;&quot;&gt;&lt;/p&gt;&lt;div style=&quot;text-align: justify; line-height: 120%;&quot;&gt;&lt;b style=&quot;font-family: &amp;quot;Times New Roman&amp;quot;; background-color: initial; font-size: 15px; border-color: var(--border-color);&quot;&gt;&amp;nbsp; &amp;nbsp;pear :&amp;nbsp;&lt;/b&gt;&lt;i style=&quot;font-family: &amp;quot;Times New Roman&amp;quot;; background-color: initial; border-color: var(--border-color);&quot;&gt;&lt;font style=&quot;font-size: 14px;&quot;&gt;&quot;P EH R&quot;&lt;/font&gt;&lt;/i&gt;&lt;/div&gt;&lt;font style=&quot;border-color: var(--border-color);&quot; face=&quot;Times New Roman&quot;&gt;&lt;div style=&quot;text-align: justify; line-height: 120%;&quot;&gt;&lt;b style=&quot;background-color: initial; font-size: 15px; border-color: var(--border-color);&quot;&gt;&amp;nbsp; &amp;nbsp;pair:&amp;nbsp; &amp;nbsp;&lt;/b&gt;&lt;i style=&quot;background-color: initial; border-color: var(--border-color);&quot;&gt;&lt;font style=&quot;font-size: 14px;&quot;&gt;&quot;P EH R&quot;&lt;/font&gt;&lt;/i&gt;&lt;/div&gt;&lt;font style=&quot;border-color: var(--border-color);&quot;&gt;&lt;div style=&quot;text-align: justify; line-height: 120%;&quot;&gt;&lt;b style=&quot;background-color: initial; font-size: 15px; border-color: var(--border-color);&quot;&gt;&amp;nbsp; &amp;nbsp;plain:&amp;nbsp;&amp;nbsp;&lt;/b&gt;&lt;i style=&quot;background-color: initial; border-color: var(--border-color);&quot;&gt;&lt;font style=&quot;font-size: 14px;&quot;&gt;&quot;P L EY N&quot;&lt;/font&gt;&lt;/i&gt;&lt;/div&gt;&lt;b style=&quot;font-size: 15px; border-color: var(--border-color);&quot;&gt;&lt;div style=&quot;text-align: justify; line-height: 120%;&quot;&gt;&lt;font style=&quot;background-color: initial; font-size: 12px; font-weight: normal; border-color: var(--border-color);&quot;&gt;&lt;b style=&quot;font-size: 15px; border-color: var(--border-color);&quot;&gt;&amp;nbsp; &amp;nbsp;plane:&amp;nbsp;&lt;/b&gt;&lt;/font&gt;&lt;i style=&quot;background-color: initial; font-size: 12px; font-weight: normal; border-color: var(--border-color);&quot;&gt;&lt;font style=&quot;border-color: var(--border-color); font-size: 14px;&quot;&gt;&quot;P L EY N&quot;&lt;/font&gt;&lt;/i&gt;&lt;/div&gt;&lt;/b&gt;&lt;/font&gt;&lt;/font&gt;" style="text;html=1;strokeColor=none;fillColor=none;align=center;verticalAlign=middle;whiteSpace=wrap;rounded=0;" parent="A3MTyo62DCRhICWHN4gR-4" vertex="1">
          <mxGeometry x="-14.530000000000001" y="26.78" width="158.82" height="25.3" as="geometry" />
        </mxCell>
        <mxCell id="CGGLEbJkZ7G3rvRjNtM6-6" value="&lt;font size=&quot;1&quot; face=&quot;Times New Roman&quot; style=&quot;&quot;&gt;&lt;b style=&quot;font-size: 14px;&quot;&gt;Word: Phoneme&lt;/b&gt;&lt;/font&gt;" style="text;html=1;strokeColor=none;fillColor=none;align=center;verticalAlign=middle;whiteSpace=wrap;rounded=0;" vertex="1" parent="CGGLEbJkZ7G3rvRjNtM6-1">
          <mxGeometry x="2" y="96.57631985129372" width="137" height="28.18116940235339" as="geometry" />
        </mxCell>
        <mxCell id="oZS1PJBofjfwS2mwzUAG-364" value="Homophone Dictionary" style="shape=table;startSize=29;container=1;collapsible=0;childLayout=tableLayout;strokeColor=#000000;fontSize=14;fontStyle=1;fillColor=#e1d5e7;rounded=1;verticalAlign=middle;horizontal=1;swimlaneLine=1;arcSize=11;fontFamily=Times New Roman;movable=1;resizable=1;rotatable=1;deletable=1;editable=1;locked=0;connectable=1;strokeWidth=2;" parent="CGGLEbJkZ7G3rvRjNtM6-1" vertex="1">
          <mxGeometry x="186" y="10" width="150.46" height="105" as="geometry" />
        </mxCell>
        <mxCell id="oZS1PJBofjfwS2mwzUAG-365" value="" style="shape=tableRow;horizontal=0;startSize=0;swimlaneHead=0;swimlaneBody=0;strokeColor=inherit;top=0;left=0;bottom=0;right=0;collapsible=0;dropTarget=0;fillColor=none;points=[[0,0.5],[1,0.5]];portConstraint=eastwest;fontSize=16;movable=1;resizable=1;rotatable=1;deletable=1;editable=1;locked=0;connectable=1;" parent="oZS1PJBofjfwS2mwzUAG-364" vertex="1">
          <mxGeometry y="29" width="150.46" height="32" as="geometry" />
        </mxCell>
        <mxCell id="oZS1PJBofjfwS2mwzUAG-366" value="&lt;i&gt;&lt;font face=&quot;Times New Roman&quot; style=&quot;font-size: 14px;&quot;&gt;&lt;b&gt;&quot;P EH R&quot;&lt;/b&gt;&lt;/font&gt;&lt;/i&gt;" style="shape=partialRectangle;html=1;whiteSpace=wrap;connectable=1;strokeColor=inherit;overflow=hidden;fillColor=none;top=0;left=0;bottom=0;right=0;pointerEvents=1;fontSize=16;spacing=0;movable=1;resizable=1;rotatable=1;deletable=1;editable=1;locked=0;" parent="oZS1PJBofjfwS2mwzUAG-365" vertex="1">
          <mxGeometry width="74" height="32" as="geometry">
            <mxRectangle width="74" height="32" as="alternateBounds" />
          </mxGeometry>
        </mxCell>
        <mxCell id="oZS1PJBofjfwS2mwzUAG-367" value="&lt;font face=&quot;Times New Roman&quot; style=&quot;font-size: 15px;&quot;&gt;pear&lt;/font&gt;" style="shape=partialRectangle;html=1;whiteSpace=wrap;connectable=1;strokeColor=inherit;overflow=hidden;fillColor=none;top=0;left=0;bottom=0;right=0;pointerEvents=1;fontSize=16;spacing=-1;movable=1;resizable=1;rotatable=1;deletable=1;editable=1;locked=0;" parent="oZS1PJBofjfwS2mwzUAG-365" vertex="1">
          <mxGeometry x="74" width="36" height="32" as="geometry">
            <mxRectangle width="36" height="32" as="alternateBounds" />
          </mxGeometry>
        </mxCell>
        <mxCell id="oZS1PJBofjfwS2mwzUAG-368" value="&lt;font face=&quot;Times New Roman&quot; style=&quot;font-size: 15px;&quot;&gt;pair&lt;/font&gt;" style="shape=partialRectangle;html=1;whiteSpace=wrap;connectable=1;strokeColor=inherit;overflow=hidden;fillColor=none;top=0;left=0;bottom=0;right=0;pointerEvents=1;fontSize=16;spacing=-2;movable=1;resizable=1;rotatable=1;deletable=1;editable=1;locked=0;" parent="oZS1PJBofjfwS2mwzUAG-365" vertex="1">
          <mxGeometry x="110" width="40" height="32" as="geometry">
            <mxRectangle width="40" height="32" as="alternateBounds" />
          </mxGeometry>
        </mxCell>
        <mxCell id="oZS1PJBofjfwS2mwzUAG-369" value="" style="shape=tableRow;horizontal=0;startSize=0;swimlaneHead=0;swimlaneBody=0;strokeColor=inherit;top=0;left=0;bottom=0;right=0;collapsible=0;dropTarget=0;fillColor=none;points=[[0,0.5],[1,0.5]];portConstraint=eastwest;fontSize=16;movable=1;resizable=1;rotatable=1;deletable=1;editable=1;locked=0;connectable=1;" parent="oZS1PJBofjfwS2mwzUAG-364" vertex="1">
          <mxGeometry y="61" width="150.46" height="26" as="geometry" />
        </mxCell>
        <mxCell id="oZS1PJBofjfwS2mwzUAG-370" value="&lt;font size=&quot;1&quot; face=&quot;Times New Roman&quot; style=&quot;&quot;&gt;&lt;i style=&quot;font-size: 14px;&quot;&gt;&lt;b&gt;&quot;P L EY N&quot;&lt;/b&gt;&lt;/i&gt;&lt;/font&gt;" style="shape=partialRectangle;html=1;whiteSpace=wrap;connectable=1;strokeColor=inherit;overflow=hidden;fillColor=none;top=0;left=0;bottom=0;right=0;pointerEvents=1;fontSize=16;spacing=0;movable=1;resizable=1;rotatable=1;deletable=1;editable=1;locked=0;" parent="oZS1PJBofjfwS2mwzUAG-369" vertex="1">
          <mxGeometry width="74" height="26" as="geometry">
            <mxRectangle width="74" height="26" as="alternateBounds" />
          </mxGeometry>
        </mxCell>
        <mxCell id="oZS1PJBofjfwS2mwzUAG-371" value="&lt;font face=&quot;Times New Roman&quot; style=&quot;font-size: 15px;&quot;&gt;plain&lt;/font&gt;" style="shape=partialRectangle;html=1;whiteSpace=wrap;connectable=1;strokeColor=inherit;overflow=hidden;fillColor=none;top=0;left=0;bottom=0;right=0;pointerEvents=1;fontSize=16;spacing=0;movable=1;resizable=1;rotatable=1;deletable=1;editable=1;locked=0;" parent="oZS1PJBofjfwS2mwzUAG-369" vertex="1">
          <mxGeometry x="74" width="36" height="26" as="geometry">
            <mxRectangle width="36" height="26" as="alternateBounds" />
          </mxGeometry>
        </mxCell>
        <mxCell id="oZS1PJBofjfwS2mwzUAG-372" value="&lt;font face=&quot;Times New Roman&quot;&gt;&lt;span style=&quot;font-size: 15px;&quot;&gt;plane&lt;/span&gt;&lt;/font&gt;" style="shape=partialRectangle;html=1;whiteSpace=wrap;connectable=1;strokeColor=inherit;overflow=hidden;fillColor=none;top=0;left=0;bottom=0;right=0;pointerEvents=1;fontSize=16;spacing=0;movable=1;resizable=1;rotatable=1;deletable=1;editable=1;locked=0;" parent="oZS1PJBofjfwS2mwzUAG-369" vertex="1">
          <mxGeometry x="110" width="40" height="26" as="geometry">
            <mxRectangle width="40" height="26" as="alternateBounds" />
          </mxGeometry>
        </mxCell>
        <mxCell id="oZS1PJBofjfwS2mwzUAG-373" style="shape=tableRow;horizontal=0;startSize=0;swimlaneHead=0;swimlaneBody=0;strokeColor=inherit;top=0;left=0;bottom=0;right=0;collapsible=0;dropTarget=0;fillColor=none;points=[[0,0.5],[1,0.5]];portConstraint=eastwest;fontSize=16;movable=1;resizable=1;rotatable=1;deletable=1;editable=1;locked=0;connectable=1;" parent="oZS1PJBofjfwS2mwzUAG-364" vertex="1">
          <mxGeometry y="87" width="150.46" height="18" as="geometry" />
        </mxCell>
        <mxCell id="oZS1PJBofjfwS2mwzUAG-374" value="..." style="shape=partialRectangle;html=1;whiteSpace=wrap;connectable=1;strokeColor=inherit;overflow=hidden;fillColor=none;top=0;left=0;bottom=0;right=0;pointerEvents=1;fontSize=16;spacing=0;spacingBottom=-6;spacingTop=-14;movable=1;resizable=1;rotatable=1;deletable=1;editable=1;locked=0;" parent="oZS1PJBofjfwS2mwzUAG-373" vertex="1">
          <mxGeometry width="74" height="18" as="geometry">
            <mxRectangle width="74" height="18" as="alternateBounds" />
          </mxGeometry>
        </mxCell>
        <mxCell id="oZS1PJBofjfwS2mwzUAG-375" value="..." style="shape=partialRectangle;html=1;whiteSpace=wrap;connectable=1;strokeColor=inherit;overflow=hidden;fillColor=none;top=0;left=0;bottom=0;right=0;pointerEvents=1;fontSize=16;spacing=0;spacingTop=-8;movable=1;resizable=1;rotatable=1;deletable=1;editable=1;locked=0;" parent="oZS1PJBofjfwS2mwzUAG-373" vertex="1">
          <mxGeometry x="74" width="36" height="18" as="geometry">
            <mxRectangle width="36" height="18" as="alternateBounds" />
          </mxGeometry>
        </mxCell>
        <mxCell id="oZS1PJBofjfwS2mwzUAG-376" value="..." style="shape=partialRectangle;html=1;whiteSpace=wrap;connectable=1;strokeColor=inherit;overflow=hidden;fillColor=none;top=0;left=0;bottom=0;right=0;pointerEvents=1;fontSize=16;spacing=0;spacingTop=-8;movable=1;resizable=1;rotatable=1;deletable=1;editable=1;locked=0;" parent="oZS1PJBofjfwS2mwzUAG-373" vertex="1">
          <mxGeometry x="110" width="40" height="18" as="geometry">
            <mxRectangle width="40" height="18" as="alternateBounds" />
          </mxGeometry>
        </mxCell>
        <mxCell id="CGGLEbJkZ7G3rvRjNtM6-12" value="&lt;font face=&quot;Times New Roman&quot; style=&quot;font-size: 14px;&quot;&gt;&lt;b&gt;cluster&lt;/b&gt;&lt;/font&gt;" style="text;html=1;strokeColor=none;fillColor=none;align=center;verticalAlign=middle;whiteSpace=wrap;rounded=0;" vertex="1" parent="CGGLEbJkZ7G3rvRjNtM6-1">
          <mxGeometry x="128" y="16.069979529170936" width="60" height="26.92937563971341" as="geometry" />
        </mxCell>
        <mxCell id="CGGLEbJkZ7G3rvRjNtM6-2" value="" style="endArrow=classic;html=1;rounded=0;strokeWidth=2;" edge="1" parent="1">
          <mxGeometry width="50" height="50" relative="1" as="geometry">
            <mxPoint x="990" y="-3170" as="sourcePoint" />
            <mxPoint x="1029" y="-3170" as="targetPoint" />
          </mxGeometry>
        </mxCell>
        <mxCell id="CGGLEbJkZ7G3rvRjNtM6-3" value="&lt;b&gt;&lt;font face=&quot;Times New Roman&quot;&gt;X&lt;/font&gt;&lt;/b&gt;" style="text;html=1;strokeColor=none;fillColor=none;align=center;verticalAlign=middle;whiteSpace=wrap;rounded=0;" vertex="1" parent="1">
          <mxGeometry x="977" y="-3203" width="60" height="30" as="geometry" />
        </mxCell>
        <mxCell id="CGGLEbJkZ7G3rvRjNtM6-4" value="" style="endArrow=classic;html=1;rounded=0;strokeWidth=2;" edge="1" parent="1">
          <mxGeometry width="50" height="50" relative="1" as="geometry">
            <mxPoint x="1088" y="-3170" as="sourcePoint" />
            <mxPoint x="1129" y="-3170" as="targetPoint" />
          </mxGeometry>
        </mxCell>
        <mxCell id="CGGLEbJkZ7G3rvRjNtM6-5" value="&lt;font face=&quot;Times New Roman&quot; style=&quot;font-size: 14px;&quot;&gt;&lt;b&gt;extract&lt;/b&gt;&lt;/font&gt;" style="text;html=1;strokeColor=none;fillColor=none;align=center;verticalAlign=middle;whiteSpace=wrap;rounded=0;" vertex="1" parent="1">
          <mxGeometry x="1074.64" y="-3204" width="60" height="30" as="geometry" />
        </mxCell>
        <mxCell id="CGGLEbJkZ7G3rvRjNtM6-10" value="&lt;font size=&quot;1&quot; face=&quot;Times New Roman&quot; style=&quot;&quot;&gt;&lt;b style=&quot;font-size: 14px;&quot;&gt;Grapheme-to-phoneme&lt;/b&gt;&lt;/font&gt;" style="text;html=1;strokeColor=none;fillColor=none;align=center;verticalAlign=middle;whiteSpace=wrap;rounded=0;" vertex="1" parent="1">
          <mxGeometry x="987" y="-3121.26" width="146.64" height="30" as="geometry" />
        </mxCell>
      </root>
    </mxGraphModel>
  </diagram>
</mxfile>
